<?xml version="1.0" encoding="UTF-8"?>
<svg xmlns="http://www.w3.org/2000/svg" width="960" height="640" viewBox="0 0 960 640" role="img" aria-label="Persona en silla de ruedas usando una rampa accesible">
  <defs>
    <linearGradient id="bg" x1="0" y1="0" x2="1" y2="1">
      <stop offset="0" stop-color="#4A90E2" stop-opacity="0.14"/>
      <stop offset="1" stop-color="#7B61FF" stop-opacity="0.14"/>
    </linearGradient>
  </defs>
  <rect x="0" y="0" width="960" height="640" rx="28" fill="url(#bg)"/>

  <!-- Suelo -->
  <rect x="70" y="514" width="820" height="30" rx="15" fill="#1F2933" fill-opacity="0.10"/>

  <!-- Rampa -->
  <path d="M200 510 L520 350 L860 350 L860 510 Z" fill="#FFFFFF" fill-opacity="0.70" stroke="#1F2933" stroke-opacity="0.18"/>
  <path d="M520 350 L860 350" stroke="#7B61FF" stroke-opacity="0.45" stroke-width="10" stroke-linecap="round"/>

  <!-- Señal accesible -->
  <rect x="725" y="148" width="150" height="150" rx="18" fill="#FFFFFF" fill-opacity="0.78" stroke="#4A90E2" stroke-opacity="0.25"/>
  <circle cx="800" cy="223" r="46" fill="#4A90E2" fill-opacity="0.15" stroke="#4A90E2" stroke-opacity="0.6"/>
  <circle cx="800" cy="194" r="10" fill="#4A90E2" fill-opacity="0.7"/>
  <path d="M800 206 L800 236" stroke="#4A90E2" stroke-width="8" stroke-linecap="round"/>
  <path d="M786 220 L814 220" stroke="#4A90E2" stroke-width="8" stroke-linecap="round"/>
  <circle cx="800" cy="258" r="18" fill="none" stroke="#4A90E2" stroke-width="8"/>

  <!-- Persona en silla de ruedas (minimalista) -->
  <circle cx="320" cy="300" r="32" fill="#7B61FF" fill-opacity="0.20" stroke="#7B61FF" stroke-opacity="0.55"/>
  <path d="M320 332 C 300 354, 290 388, 290 420" fill="none" stroke="#7B61FF" stroke-width="10" stroke-linecap="round"/>
  <path d="M330 342 L390 382" fill="none" stroke="#7B61FF" stroke-width="10" stroke-linecap="round"/>

  <!-- Silla -->
  <circle cx="310" cy="452" r="52" fill="#FFFFFF" fill-opacity="0.80" stroke="#4A90E2" stroke-opacity="0.55" stroke-width="10"/>
  <circle cx="310" cy="452" r="16" fill="#4A90E2" fill-opacity="0.18"/>
  <circle cx="420" cy="470" r="18" fill="#FFFFFF" fill-opacity="0.80" stroke="#4A90E2" stroke-opacity="0.55" stroke-width="8"/>
  <path d="M290 420 L360 420 L412 470" fill="none" stroke="#1F2933" stroke-opacity="0.20" stroke-width="12" stroke-linecap="round"/>

  <!-- Flecha de avance -->
  <path d="M520 250 H670" stroke="#4A90E2" stroke-opacity="0.65" stroke-width="12" stroke-linecap="round"/>
  <path d="M650 230 L670 250 L650 270" fill="none" stroke="#4A90E2" stroke-opacity="0.65" stroke-width="12" stroke-linecap="round" stroke-linejoin="round"/>
</svg>
